<svg xmlns="http://www.w3.org/2000/svg" viewBox="0 0 360.05 48.82"><defs><style>.cls-1{fill:#1d1d1b;}.cls-2{fill:#e94556;}</style></defs><title>Ativo 1</title><g id="Camada_2" data-name="Camada 2"><g id="Camada_1-2" data-name="Camada 1"><path class="cls-1" d="M40.14,17.42v.86c0,8.61-6,15-14.57,15H14.64V48H0V2.45H25.57C34.18,2.45,40.14,8.81,40.14,17.42Zm-25.5,5.23h6c3.11,0,4.63-1.72,4.63-4.43v-.53c0-2.72-1.45-4.44-4.63-4.44h-6Z"/><path class="cls-1" d="M72.06,13V24H67.82c-5.69,0-7.75,3.12-7.75,8.42V48H46.89v-35h10.8l.86,5.3c1.66-4.17,5.43-6.16,9.61-6.16A8.77,8.77,0,0,1,72.06,13Z"/><path class="cls-1" d="M115.18,30.54v2.25H89c0,4.83,2,7.62,7,7.62,4.71,0,6.43-2.26,6.43-5.1h12.78c0,8.34-6.36,13.51-18.94,13.51s-20.47-5.7-20.47-18.28c0-12.26,7.75-18.29,19.67-18.29C108,12.25,115.18,18,115.18,30.54ZM89,26.56h12.85c0-3.64-2.19-5.89-5.9-5.89C91.53,20.67,89.48,22.92,89,26.56Z"/><path class="cls-1" d="M129.09,48l-13.25-35H130l6.42,21.79h.47l6.42-21.79h13L142.93,48Z"/><path class="cls-1" d="M160.75,8.94V0h13.18V8.94Zm0,39.08v-35h13.18V48Z"/><path class="cls-1" d="M218.64,25.37V48H205.46V27c0-2.92-1.53-5-4.44-5a5.37,5.37,0,0,0-5.5,5.5V48H182.34v-35h10.8l.86,5.3a15.62,15.62,0,0,1,12.45-6.1C214.73,12.25,218.64,17.09,218.64,25.37Z"/><path class="cls-1" d="M264.34,30.54v2.25H238.11c0,4.83,2,7.62,7,7.62,4.7,0,6.43-2.26,6.43-5.1h12.78c0,8.34-6.36,13.51-18.94,13.51s-20.47-5.7-20.47-18.28c0-12.26,7.75-18.29,19.67-18.29C257.19,12.25,264.34,18,264.34,30.54Zm-26.16-4H251c0-3.64-2.19-5.89-5.9-5.89C240.69,20.67,238.64,22.92,238.18,26.56Z"/><path class="cls-2" d="M302.16,48l-1.92-6.42h-16L282.35,48h-15L284,2.45h17L317.66,48ZM287.32,31.4h9.87l-4.77-16.23h-.26Z"/><path class="cls-2" d="M360.05,30.54v2.25H333.82c0,4.83,2,7.62,7,7.62,4.7,0,6.42-2.26,6.42-5.1h12.79c0,8.34-6.36,13.51-18.95,13.51s-20.46-5.7-20.46-18.28c0-12.26,7.75-18.29,19.67-18.29C352.89,12.25,360.05,18,360.05,30.54ZM345.21,9.6l-4.9-5.1-5,5.1h-8.48L336.14,0h8.41l9.27,9.6Zm-11.33,17h12.85c0-3.64-2.18-5.89-5.89-5.89C336.4,20.67,334.35,22.92,333.88,26.56Z"/></g></g></svg>